<?xml version="1.0" encoding="UTF-8"?>
<svg xmlns="http://www.w3.org/2000/svg" xmlns:xlink="http://www.w3.org/1999/xlink" width="140px" height="140px" viewBox="0 0 140 140" version="1.1">
<g id="surface1">
<path style=" stroke:none;fill-rule:nonzero;fill:rgb(0%,0%,0%);fill-opacity:1;" d="M 140 70 C 140 108.660156 108.660156 140 70 140 C 31.339844 140 0 108.660156 0 70 C 0 31.339844 31.339844 0 70 0 C 108.660156 0 140 31.339844 140 70 M 105.261719 43.488281 C 104 42.230469 102.277344 41.539062 100.496094 41.574219 C 98.714844 41.609375 97.023438 42.371094 95.8125 43.679688 L 65.421875 82.398438 L 47.109375 64.078125 C 44.523438 61.667969 40.496094 61.738281 37.996094 64.238281 C 35.496094 66.734375 35.425781 70.765625 37.835938 73.351562 L 60.988281 96.511719 C 62.246094 97.769531 63.964844 98.460938 65.746094 98.429688 C 67.527344 98.394531 69.214844 97.640625 70.429688 96.335938 L 105.359375 52.675781 C 107.835938 50.097656 107.796875 46.015625 105.269531 43.488281 Z M 105.261719 43.488281 "/>
</g>
</svg>
