<?xml version="1.0" encoding="UTF-8"?>
<svg xmlns="http://www.w3.org/2000/svg" xmlns:xlink="http://www.w3.org/1999/xlink" width="140px" height="140px" viewBox="0 0 140 140" version="1.1">
<g id="surface1">
<path style=" stroke:none;fill-rule:nonzero;fill:rgb(0%,0%,0%);fill-opacity:1;" d="M 140 70 C 140 108.660156 108.660156 140 70 140 C 31.339844 140 0 108.660156 0 70 C 0 31.339844 31.339844 0 70 0 C 108.660156 0 140 31.339844 140 70 M 46.847656 40.652344 C 45.136719 38.941406 42.363281 38.941406 40.652344 40.652344 C 38.941406 42.363281 38.941406 45.136719 40.652344 46.847656 L 63.8125 70 L 40.652344 93.152344 C 38.941406 94.863281 38.941406 97.636719 40.652344 99.347656 C 42.363281 101.058594 45.136719 101.058594 46.847656 99.347656 L 70 76.1875 L 93.152344 99.347656 C 94.863281 101.058594 97.636719 101.058594 99.347656 99.347656 C 101.058594 97.636719 101.058594 94.863281 99.347656 93.152344 L 76.1875 70 L 99.347656 46.847656 C 101.058594 45.136719 101.058594 42.363281 99.347656 40.652344 C 97.636719 38.941406 94.863281 38.941406 93.152344 40.652344 L 70 63.8125 Z M 46.847656 40.652344 "/>
</g>
</svg>
